<svg id="Layer_1" data-name="Layer 1" xmlns="http://www.w3.org/2000/svg" viewBox="0 0 307 122"><defs><style>.cls-1{fill:#ba0c2f;}.cls-2{fill:#c6aa76;}.cls-3{fill:#231f20;}</style></defs><path d="M83.46,95.09c-.84-.7-1.19-1.87-1.19-4.52V85c0-2.57.35-3.82,1.19-4.52a4.27,4.27,0,0,1,5,0c.86.72,1.19,2,1.19,4.21v0H87.75v0c0-1.71,0-3.29-1.82-3.29s-1.82,1.58-1.82,3.2v6.36c0,1.71,0,3.23,1.82,3.23s1.87-1.56,1.87-3.62v-.07h1.84v.07c0,2.63-.37,3.81-1.23,4.54a3.63,3.63,0,0,1-2.48.79A3.68,3.68,0,0,1,83.46,95.09Z"/><path d="M93.28,95.09c-.83-.7-1.18-1.91-1.18-4.52V85c0-2.61.35-3.82,1.18-4.52a3.83,3.83,0,0,1,2.48-.79,3.79,3.79,0,0,1,2.48.79c.83.7,1.2,1.91,1.2,4.52v5.59c0,2.61-.37,3.82-1.2,4.52a4.29,4.29,0,0,1-5,0ZM97.6,91V84.58c0-1.6,0-3.2-1.84-3.2s-1.82,1.6-1.82,3.2V91c0,1.6,0,3.2,1.82,3.2S97.6,92.57,97.6,91Z"/><path d="M102.45,94V81.54l0-1.61h2.47l2.2,10a14,14,0,0,1,.28,1.91h.07a18,18,0,0,1,.28-1.91l2.22-10h2.43l0,1.61V94l0,1.6h-1.71l0-1.6v-8.9c0-.61,0-1.4.07-2h-.07a17.81,17.81,0,0,1-.33,1.91l-2.28,10.54h-1.36l-2.28-10.54c-.13-.6-.26-1.36-.35-1.91H104c0,.55.06,1.34.06,2V94l0,1.6h-1.68Z"/><path d="M115.54,94V81.54l0-1.61h2.94c3.55,0,4.43,2,4.43,4.48v0c0,2.5-.88,4.5-4.43,4.5h-1.1V94l0,1.6h-1.86Zm2.72-6.68c2.19,0,2.74-1.25,2.74-2.88v0c0-1.6-.53-2.87-2.74-2.87h-.9v5.79Z"/><path d="M132.36,79.93l0,1.61V92.11a3.41,3.41,0,0,1-3.66,3.77c-2.26,0-3.64-1.36-3.64-3.77V81.54l0-1.61h1.87l0,1.61V91.91c0,1.47.59,2.26,1.82,2.26s1.84-.79,1.84-2.26V81.54l0-1.61Z"/><path d="M139,81.54V94l0,1.6h-1.85l0-1.6V81.54h-2.83V79.93h7.45v1.61Z"/><path d="M145.8,79.93l0,1.61V94l0,1.6h-1.86l0-1.6V81.54l0-1.61Z"/><path d="M150.85,79.93l3.68,9.32a17.38,17.38,0,0,1,.68,2h.09c0-.57-.11-1.45-.11-2.06V81.54l0-1.61H157l0,1.61V94l0,1.6h-1.71l-3.86-9.89c-.35-.83-.55-1.42-.73-2h-.08c0,.57.11,1.47.11,2.08V94l0,1.6h-1.8l0-1.6V81.54l0-1.61Z"/><path d="M163.7,87.65h3.73v8h-.92l-.38-1.36h0a2.64,2.64,0,0,1-2.63,1.61,3.59,3.59,0,0,1-2.31-.75c-.87-.72-1.18-2.13-1.18-4.54V85c0-2.5.33-3.8,1.18-4.52a4.29,4.29,0,0,1,5,0c.72.64,1.18,1.65,1.18,4.21v0h-1.84v0c0-1.84,0-3.29-1.82-3.29s-1.82,1.45-1.82,3.2V91c0,1.71,0,3.2,1.82,3.2,2,0,2-1.78,2-3.31V89.3H163.7Z"/><path d="M180.43,82.92c0,1.66-.81,2.83-2.67,4.87A43.19,43.19,0,0,0,180,91.6a14.92,14.92,0,0,0,1.16-3.4l1.52.35A16.87,16.87,0,0,1,181,93a3,3,0,0,0,1.67,1.19v1.71A3.83,3.83,0,0,1,180,94.47,3.73,3.73,0,0,1,177,95.88a3.29,3.29,0,0,1-3.44-3.58,6.87,6.87,0,0,1,2.17-4.6,9.46,9.46,0,0,1-1.36-4.32c0-2.2,1.29-3.71,3.18-3.71S180.43,81,180.43,82.92Zm-3.9,6.2a4.78,4.78,0,0,0-1.21,3,1.87,1.87,0,0,0,1.89,2.14,2.17,2.17,0,0,0,1.77-1A37.5,37.5,0,0,1,176.53,89.12Zm.5-2.67c1.19-1.21,1.78-2.13,1.78-3.47s-.53-1.88-1.3-1.88-1.44.79-1.44,2.15A7.45,7.45,0,0,0,177,86.45Z"/><path d="M194.9,80.83c.95.79,1.36,1.93,1.36,4.46v5c0,2.53-.41,3.67-1.36,4.46a4.09,4.09,0,0,1-2.74.89h-3.24l0-1.6V81.54l0-1.61h3.24A4.09,4.09,0,0,1,194.9,80.83Zm-4.14.71V94h1.14a2.63,2.63,0,0,0,1.64-.5,3.39,3.39,0,0,0,.88-2.76v-6a3.39,3.39,0,0,0-.88-2.76,2.63,2.63,0,0,0-1.64-.5Z"/><path d="M200.15,95.61h-1.89l2.87-15.68h2.48l2.85,15.68h-1.84L204,92h-3.22Zm.89-5.3h2.66l-1-5.84c-.09-.68-.24-1.6-.29-2.1h-.08c0,.5-.16,1.42-.29,2.1Z"/><path d="M212.23,81.54V94l0,1.6h-1.84l0-1.6V81.54H207.6V79.93h7.46v1.61Z"/><path d="M218.08,95.61H216.2l2.87-15.68h2.48l2.85,15.68h-1.84L221.92,92H218.7Zm.9-5.3h2.66l-1-5.84c-.09-.68-.24-1.6-.29-2.1h-.08c0,.5-.16,1.42-.29,2.1Z"/><path d="M231.31,91.34c.17,2,1.05,2.83,2.34,2.83a1.74,1.74,0,0,0,1.87-2,3.93,3.93,0,0,0-1.78-3.07L232,87.57a5.19,5.19,0,0,1-2.09-4.1,3.52,3.52,0,0,1,3.69-3.8c2.26,0,3.51,1.56,3.7,3.93l-1.8.22c-.08-1.43-.7-2.44-1.95-2.44-1,0-1.77.66-1.77,2a3.81,3.81,0,0,0,1.69,2.89l1.75,1.56a5.38,5.38,0,0,1,2.21,4.3,3.5,3.5,0,0,1-3.77,3.75c-2.39,0-3.88-1.54-4.1-4.3Z"/><path d="M240.85,95.09c-.84-.7-1.19-1.87-1.19-4.52V85c0-2.57.35-3.82,1.19-4.52a3.73,3.73,0,0,1,2.48-.79,3.67,3.67,0,0,1,2.47.79c.86.72,1.19,2,1.19,4.21v0h-1.84v0c0-1.71,0-3.29-1.82-3.29s-1.82,1.58-1.82,3.2v6.36c0,1.71,0,3.23,1.82,3.23s1.86-1.56,1.86-3.62v-.07H247v.07c0,2.63-.37,3.81-1.23,4.54a3.6,3.6,0,0,1-2.47.79A3.69,3.69,0,0,1,240.85,95.09Z"/><path d="M251.51,79.93l0,1.61V94l0,1.6h-1.87l0-1.6V81.54l0-1.61Z"/><path d="M256.48,88.25V94H261v1.6h-6.38l0-1.6V81.54l0-1.61h6.3v1.61h-4.46v5.08h3.64v1.63Z"/><path d="M265.45,79.93l3.69,9.32a19.66,19.66,0,0,1,.68,2h.08c0-.57-.11-1.45-.11-2.06V81.54l0-1.61h1.82l0,1.61V94l0,1.6h-1.71L266,85.72a19.85,19.85,0,0,1-.72-2h-.09c.05.57.11,1.47.11,2.08V94l0,1.6h-1.8l0-1.6V81.54l0-1.61Z"/><path d="M275.76,95.09c-.83-.7-1.18-1.87-1.18-4.52V85c0-2.57.35-3.82,1.18-4.52a4.29,4.29,0,0,1,5,0c.85.72,1.18,2,1.18,4.21v0h-1.84v0c0-1.71,0-3.29-1.82-3.29s-1.82,1.58-1.82,3.2v6.36c0,1.71,0,3.23,1.82,3.23s1.86-1.56,1.86-3.62v-.07h1.84v.07c0,2.63-.37,3.81-1.22,4.54a3.65,3.65,0,0,1-2.48.79A3.69,3.69,0,0,1,275.76,95.09Z"/><path d="M286.4,88.25V94h4.53v1.6h-6.38l0-1.6V81.54l0-1.61h6.3v1.61H286.4v5.08H290v1.63Z"/><g id="logo"><polygon class="cls-1" points="12.74 18.35 17.78 12.75 20.1 19.92 12.74 18.35"/><path d="M16.92,37.93A21.24,21.24,0,1,1,38.16,59.17,21.24,21.24,0,0,1,16.92,37.93Z"/><path class="cls-2" d="M25.87,28.23v.35a1.23,1.23,0,0,1,.78,1L31.29,48.3a3.59,3.59,0,0,1,.13.84c0,.23-.1.42-.45.42v.35H35.5v-.35c-.37,0-.48-.22-.48-.39a2.13,2.13,0,0,1,.06-.5l3-15h0l3.28,14.74a2,2,0,0,1,.08.57.48.48,0,0,1-.49.54v.35h4.53v-.35c-.38,0-.56-.07-.56-.49a1.79,1.79,0,0,1,.06-.53l4.45-19a1.34,1.34,0,0,1,.78-1v-.35h-4v.35a.49.49,0,0,1,.45.57,3.16,3.16,0,0,1-.06.35L43.44,44.72h-.06L40.24,30.06a5.66,5.66,0,0,1-.16-1c0-.24.11-.47.51-.54v-.35H35.87v.35c.38.12.51.33.51.6a2.09,2.09,0,0,1-.06.48l-3,15.07h-.06L29.86,29.88a6.72,6.72,0,0,1-.1-.69.65.65,0,0,1,.58-.63v-.35H25.87Z"/><path class="cls-2" d="M63.77,35.81a25.73,25.73,0,0,0-23.6-23.49L38.12,0,36.06,12.32A25.73,25.73,0,0,0,12.54,35.8L.24,37.85l12.31,2.06A25.72,25.72,0,0,0,36.09,63.53l2,12.32,2-12.32A25.72,25.72,0,0,0,63.79,39.9L76.1,37.84ZM61.33,46.87,58,45.45a21.19,21.19,0,0,1-3,5.41L57.87,53a25.37,25.37,0,0,1-4.63,4.63l-2.18-2.84a21.05,21.05,0,0,1-5.33,3L47.1,61.1a25.11,25.11,0,0,1-6.79,1.59L40.93,59a21.13,21.13,0,0,1-2.77.18A20.53,20.53,0,0,1,35.32,59l.61,3.7a24.64,24.64,0,0,1-6.76-1.61l1.37-3.31a21.23,21.23,0,0,1-5.32-3L23,57.62a25,25,0,0,1-4.57-4.57l2.85-2.17a21.13,21.13,0,0,1-3-5.4L15,46.89a24.67,24.67,0,0,1-1.6-6.83l3.69.61a22.51,22.51,0,0,1-.18-2.74,21,21,0,0,1,.2-2.88l-3.71.61A25.16,25.16,0,0,1,15,29l3.29,1.45a21.28,21.28,0,0,1,3-5.42l-2.86-2.16A24.84,24.84,0,0,1,23,18.24l2.12,2.89a21.3,21.3,0,0,1,5.39-3l-1.39-3.31a25.55,25.55,0,0,1,6.73-1.6l-.62,3.71a20.82,20.82,0,0,1,2.86-.19,21.28,21.28,0,0,1,2.78.18l-.62-3.7a25,25,0,0,1,6.76,1.58l-1.37,3.32a21.07,21.07,0,0,1,5.35,3l2.16-2.86a24.42,24.42,0,0,1,4.58,4.56L54.91,25a20.94,20.94,0,0,1,3,5.38l3.31-1.41a25,25,0,0,1,1.61,6.76l-3.71-.62a21.25,21.25,0,0,1,.2,2.89,20.82,20.82,0,0,1-.18,2.75l3.7-.62A23.22,23.22,0,0,1,61.33,46.87Z"/><path d="M91.25,20.28h.15l3,11.72c0,.25.12.5.18.72a4.47,4.47,0,0,1,.2,1c0,.28-.32.49-.82.54l.06.6,5.57-.06v-.6c-.48-.05-.76-.29-.76-.62a8.82,8.82,0,0,1,.43-1.68l4.94-15.81c.39-1.17.5-1.41,1.33-1.51l0-.6L100,14l.07.61c.52,0,.76.28.76.8a6.34,6.34,0,0,1-.33,1.78L97.16,28.76H97L93.92,16.24a5.66,5.66,0,0,1-.21-1c0-.32.36-.59.78-.59L94.42,14,88.79,14l.07.61c.52,0,.76.14.76.52a5.94,5.94,0,0,1-.18,1.16l0,.23-2.91,12.2h-.15l-3-11.44A6.49,6.49,0,0,1,83,15.41c0-.56.3-.83.92-.83l-.06-.6L78,14l.06.61a1.35,1.35,0,0,1,1.14,1L83.67,32A6.56,6.56,0,0,1,84,33.58c0,.43-.25.59-.62.68l0,.6,5.63-.06L89,34.2a.71.71,0,0,1-.76-.76,8.71,8.71,0,0,1,.2-1.31l0-.22,2.75-11.63Z"/><path d="M112.33,14.64c.57,0,.87.43.87,1.24V33c0,1.13-.66,1.3-1.06,1.3l.07.6,6-.06v-.6c-.66.07-1-.36-1-1.23V15.88c0-.87.35-1.3,1.06-1.3l-.06-.6-6.11.06.07.61Z"/><path d="M140.09,34.8c.77,0,1.13.25,1.3.9l.54,0v-5.3l-.6.06c-.07.71-.33,1.19-1.23,1.19h-8.3l-.07-15.73c0-.86.39-1.3,1.16-1.3l-.06-.6-6.44.06.07.61c.83-.06,1.24.35,1.24,1.23V33a1.13,1.13,0,0,1-1.3,1.3l.07.6,13.62-.07Z"/><path d="M160.92,34.8c.77,0,1.13.25,1.29.9l.54,0v-5.3l-.6.06c-.07.71-.34,1.19-1.23,1.19h-8.31l-.06-15.73c0-.86.39-1.3,1.15-1.3l-.07-.6L147.2,14l.06.61c.84-.06,1.23.35,1.23,1.23V33a1.13,1.13,0,0,1-1.3,1.3l.06.6,13.67-.07Z"/><path d="M210.75,18.09h.14L211,33c0,.83-.37,1.3-1,1.3l.06.6,5.47-.06v-.6c-.58.06-.95-.41-.95-1.23V15.88c0-.82.37-1.3,1-1.3l-.07-.6-7.2.06.06.61c.38,0,.67.19.67.61a5.25,5.25,0,0,1-.63,2l-4.57,10.48h-.14l-4.42-10.48a6.33,6.33,0,0,1-.62-2c0-.42.29-.58.71-.68l-.05-.6-7.24.06.06.61c.59-.06.95.4.95,1.23V33c0,.89-.43,1.3-.82,1.3l.06.6,5-.06-.07-.6c-.37.06-.85-.28-.85-1.23V18.28h.16c1.27,3.86,2.87,7.63,4.41,11.26.77,1.79,1.51,3.56,2.2,5.29l.6,0c.79-2,1.66-4,2.54-6,1.5-3.43,3.06-7,4.47-10.69l0,0Z"/><path d="M237.37,34.8c.77,0,1.14.25,1.3.9l.54,0v-5.3l-.6.06c-.07.71-.34,1.19-1.24,1.19h-8.83l-.06-5.85,5.38-.07c.83,0,1.15.26,1.3,1.1l.6-.05-.07-5.35-.59.06c-.09.78-.41,1-1.24,1h-5.31l-.06-5.19,8.89-.06c.9,0,1.17.49,1.3,1.28l.6-.05-.06-5.34-.6.06c-.1.6-.47.85-1.24.85H223.53l.06.61c.28-.07.86.1.86,1.23V33c0,1.13-.58,1.3-.92,1.3l.06.6,13.78-.07Z"/><path d="M247.05,17.24h4.19L251.3,33c0,1-.52,1.3-.82,1.3l.07.6L256,34.8v-.6c-.23.06-.66-.33-.66-1.23V17.3l4.24-.06a1.18,1.18,0,0,1,1.3,1l.6-.05-.06-5.06-.61.06c-.06.38-.32.85-1.23.85H247.05a1.17,1.17,0,0,1-1.29-.9l-.61,0,.06,5,.6-.06c.07-.36.33-.84,1.24-.84Z"/><path d="M267.88,17.24h4.18L272.12,33c0,1-.52,1.3-.82,1.3l.06.6,5.47-.06v-.6c-.24.06-.67-.33-.67-1.23V17.3l4.24-.06a1.16,1.16,0,0,1,1.3,1l.6-.05-.06-5.06-.61.06c-.06.38-.32.85-1.24.85H267.87a1.18,1.18,0,0,1-1.3-.9l-.6,0,.07,5,.6-.06c.07-.36.33-.84,1.24-.84Z"/><path d="M302.48,34.8c.77,0,1.13.25,1.3.9l.54,0v-5.3l-.6.06c-.08.71-.34,1.19-1.24,1.19h-8.82l-.07-5.85,5.38-.07c.84,0,1.16.26,1.3,1.1l.61-.05-.06-5.35-.6.06c-.08.78-.4,1-1.24,1h-5.31l-.07-5.19,8.89-.06c.9,0,1.16.49,1.3,1.28l.6-.05-.07-5.34-.6.06c-.1.6-.46.85-1.24.85H288.62l.07.61c.27-.07.85.1.85,1.23V33c0,1.13-.58,1.3-.92,1.3l.07.6,13.79-.07Z"/><path d="M88.85,62.15c-4.68,0-7.06-2.17-7.06-6.44V46.4c0-.39-.1-.87-.57-.87H81.1v-.79h5v.79h-.14c-.3,0-.48.33-.48.87v9.7c0,2,1.25,3.1,3.41,3.1s3.41-1.13,3.41-3.1V46.4c0-.54-.19-.87-.49-.87h-.13v-.79H96.5v.79h-.13c-.3,0-.49.33-.49.87v9.31c0,4.28-2.35,6.44-7,6.44Z"/><path d="M123,61.93h-5.11v-.78l.11,0a.34.34,0,0,0,.28-.3,1.65,1.65,0,0,0-.4-.85l-6.34-9.69v10c0,.6.22.87.72.87h.13v.8H107.4v-.8h.13c.49,0,.72-.28.72-.87V46.4c0-.59-.23-.87-.72-.87h-.13v-.79h5.87v.76l-.09,0c-.38.11-.45.24-.45.42a3.65,3.65,0,0,0,.65,1.3l5.55,8.84V46.4c0-.39-.11-.87-.64-.87h-.13v-.79H123v.79h-.13c-.53,0-.64.48-.64.87V60.26c0,.4.11.87.64.87H123v.8Z"/><path d="M139.89,61.93h-5.26v-.8h.13c.46,0,.68-.29.68-.87V46.4c0-.77-.36-.87-.68-.87h-.13v-.79h5.26v.79h-.13c-.32,0-.67.1-.67.87V60.26c0,.77.36.87.67.87h.13v.8Z"/><path d="M160.78,61.93h-5v-.78l.11,0c.14,0,.2-.26.2-.41a4.73,4.73,0,0,0-.38-1.38l-4.31-12.86c-.25-.72-.5-.84-1-.95l-.11,0v-.76h5.34v.77l-.1,0c-.49.08-.59.23-.59.45a5.13,5.13,0,0,0,.34,1.11l3.16,10.12,3.17-9.92c.05-.18.12-.36.17-.53a3.4,3.4,0,0,0,.21-.82c0-.27,0-.33-.51-.41l-.11,0v-.77h4.87v.78h-.12c-.57,0-.79.37-1,1l-4.4,13.17a5.33,5.33,0,0,0-.33,1.06c0,.3.16.36.27.37l.11,0v.79Z"/><path d="M189.14,62.62h-.77l0-.1c-.1-.38-.27-.59-.88-.59H176.11v-.8h.13c.46,0,.56-.47.56-.87V46.4c0-.39-.1-.87-.56-.87h-.13v-.79h11.36c.61,0,.78-.22.88-.6l0-.09h.77v4.64h-.77v-.11c-.12-.67-.33-.89-.88-.89h-7v3.9h4.18c.59,0,.77-.15.87-.75l0-.1h.78v4.64h-.78l0-.11c-.1-.59-.28-.74-.87-.74h-4.18V59h7c.55,0,.76-.21.88-.85V58h.77v4.61Z"/><path d="M215.19,61.93h-4.88v-.8h.13c.29,0,.29-.13.29-.18a1.42,1.42,0,0,0-.29-.78l-3-5-2.8.06v5c0,.55.21.87.56.87h.13v.8h-5v-.8h.13c.35,0,.56-.33.56-.87V46.4c0-.54-.21-.87-.56-.87h-.13v-.79h8.91c3.85,0,6,1.9,6,5.36A5.07,5.07,0,0,1,211,54.86l3.22,5.4c.35.59.47.79.83.88l.1,0v.77Zm-10.55-9.5h3.3c2.78,0,3.76-.63,3.76-2.44s-1-2.45-3.76-2.45h-3.3v4.89Z"/><path d="M233.33,62.15a11.48,11.48,0,0,1-5.55-1.32c-.76-.37-1.07-.43-1.27-.19a.91.91,0,0,1-.2.19l-.71-.19,2.2-4.41.74.42,0,.09a1.72,1.72,0,0,1-.07.21.76.76,0,0,0-.08.26c0,1,2.52,2.14,4.91,2.14,2.15,0,3.33-.86,3.33-2.41,0-1.21-1.67-1.56-3.61-2-2.92-.61-6.55-1.38-6.55-5.42,0-3.12,2.44-5.06,6.36-5.06a14.91,14.91,0,0,1,5,1.14,4.39,4.39,0,0,0,.75.25,1,1,0,0,0,.49-.23l.07,0,.15,0,.43.22-2.12,4-.58-.23v-.09c0-1.24-1.95-2.18-4.53-2.18-2,0-3.1.77-3.1,2.11s1.72,1.75,3.71,2.2c2.88.65,6.46,1.45,6.46,5.65,0,2.8-2.67,4.9-6.24,4.9Z"/><path d="M256.67,61.93h-5.26v-.8h.13c.45,0,.68-.29.68-.87V46.4c0-.77-.36-.87-.68-.87h-.13v-.79h5.26v.79h-.13c-.31,0-.68.1-.68.87V60.26c0,.77.36.87.68.87h.13v.8Z"/><path d="M276.33,61.93h-4.8v-.8h.13c.23,0,.49-.27.49-.87V47.69h-3.26a.76.76,0,0,0-.87.6l0,.09h-.77V44.05H268l0,.09a.77.77,0,0,0,.87.61h10.16a.78.78,0,0,0,.88-.61l0-.09h.76v4.41H280l0-.09a.75.75,0,0,0-.87-.67H275.8V60.27c0,.67.3.87.41.87h.13v.79Z"/><path d="M299.6,61.93h-4.72v-.8H295c.23,0,.49-.27.49-.87V53.88l-4.33-7.21c-.57-1-.65-1.1-1.48-1.13h-.12v-.79H295v.78h-.11c-.2,0-.43.1-.43.29a2.39,2.39,0,0,0,.32.84l2.63,4.48,2.35-4.3a3,3,0,0,0,.45-1.14s0-.13-.42-.18h-.12v-.78h5v.78h-.12c-.68,0-.81.26-1.31,1.12l-4.12,7.21v6.4c0,.65.29.86.33.87h.13v.8Z"/><path class="cls-3" d="M184.83,32.83l-2-5.55c-2.52-7.13-4.18-11.83-4.18-12.07a.83.83,0,0,1,.36-.63l0-.61-5.82.06.07.61a.72.72,0,0,1,.38.66c0,.48-5.77,17-6.17,18.11-.15.4-.26.69-.61.84l0,.61,4.68-.06-.06-.6c-.33-.06-.38-.47-.38-.81a12.17,12.17,0,0,1,.81-2.75c.2-.57.39-1.08.48-1.4l7,0c.21.58.47,1.26.72,1.91a10,10,0,0,1,.72,2.33.9.9,0,0,1-.6.82l0,.61,5.57-.06v-.6C185.28,34.17,185.1,33.64,184.83,32.83Zm-11.52-6.26L176,17.19l2.63,9.34Z"/></g></svg>